<svg aria-hidden="true" style="position:absolute;width:100%;height:100%" xmlns="http://www.w3.org/2000/svg"><defs><symbol id="icon-brand-awareness" viewBox="0 0 32 32"><path d="M24.563 24.563q-1.313-1-4.313-3.25-.25.313-.75 1.031t-.813 1.094q.75.563 2.313 1.75t1.938 1.5q.25-.375.781-1.094t.844-1.031zm0-17.125q-.313-.313-.844-1.031t-.781-1.094l-4.25 3.188q.313.375.813 1.125t.75 1.063q3-2.25 4.313-3.25zm2.125 9.875v-2.625h-5.375v2.625h5.375zM4 20h5.313l6.688 6.688V5.313l-6.688 6.688H4v8z"/></symbol><symbol id="icon-bullhorn" viewBox="0 0 32 32"><path d="M32 13.414c0-6.279-1.837-11.373-4.109-11.413L27.918 2h-2.592s-6.088 4.573-14.851 6.367c-.268 1.415-.438 3.102-.438 5.047s.171 3.631.438 5.047c8.763 1.794 14.851 6.367 14.851 6.367h2.592l-.027-.001C30.163 24.787 32 19.693 32 13.414zm-4.974 9.688c-.293 0-.61-.304-.773-.486-.395-.439-.775-1.124-1.1-1.979-.727-1.913-1.127-4.478-1.127-7.223s.4-5.309 1.127-7.223c.325-.855.705-1.54 1.1-1.979.163-.182.48-.486.773-.486s.61.304.773.486c.395.439.775 1.124 1.1 1.979.727 1.913 1.127 4.479 1.127 7.223s-.4 5.309-1.127 7.223c-.325.855-.705 1.54-1.1 1.979-.163.181-.48.486-.773.486zM7.869 13.414c0-1.623.119-3.201.345-4.659-1.48.205-2.779.323-4.386.323H1.732l-1.733 2.959v2.755l1.733 2.959h2.096c1.606 0 2.905.118 4.386.323a30.65 30.65 0 0 1-.345-4.659zm3.636 6.654-4-.766 2.558 10.048a.834.834 0 0 0 1.146.583l3.705-1.483a.853.853 0 0 0 .444-1.221l-3.853-7.161zm15.521-2.92c-.113 0-.235-.117-.298-.187-.152-.169-.299-.433-.424-.763-.28-.738-.434-1.726-.434-2.784s.154-2.046.434-2.784c.125-.33.272-.593.424-.763.063-.07.185-.187.298-.187s.235.117.298.187c.152.169.299.433.424.763.28.737.434 1.726.434 2.784s-.154 2.046-.434 2.784c-.125.33-.272.593-.424.763-.063.07-.185.187-.298.187z"/></symbol><symbol id="icon-voice2-1" viewBox="0 0 32 32"><path d="M17.637 3.094c-.113.05-2.4 1.625-5.075 3.5L7.7 10H5.731c-1.081 0-2.119.025-2.3.063-1.144.213-2.15 1.219-2.369 2.369-.081.444-.081 6.687 0 7.138.212 1.144 1.219 2.15 2.369 2.369.188.031 1.219.063 2.3.063H7.7l4.869 3.413c2.681 1.875 4.962 3.456 5.069 3.506.256.131.681.075.95-.125.425-.331.413-.194.413-4.244v-3.644l.425-.119c1.3-.375 2.469-1.369 3.069-2.619.325-.675.438-1.125.488-1.919.075-1.3-.35-2.519-1.225-3.563l-.188-.219-.719.713-.719.719.188.206c.394.45.681 1.25.681 1.894 0 1.044-.65 2.131-1.556 2.619-.2.106-.387.194-.406.194s-.038-3.369-.038-7.488V3.839l-.137-.275a.878.878 0 0 0-.425-.425c-.319-.156-.506-.169-.8-.044zm-.649 17.937-.019 5.031-3.981-2.794L9 20.48v-8.963l3.988-2.787 3.981-2.794.019 5.031c.006 2.769.006 7.294 0 10.063zM7 16v4.006l-1.681-.019c-1.587-.019-1.694-.025-1.856-.15a1.704 1.704 0 0 1-.3-.3c-.125-.169-.131-.25-.15-3.369-.013-1.762 0-3.287.019-3.4.044-.25.306-.569.563-.681.138-.063.6-.081 1.8-.088h1.606v4zm19.169-9.412c-.481.175-.7.506-.656 1.019.031.356 0 .306.825 1.25 1.144 1.306 2.038 3.125 2.413 4.894.5 2.381.194 4.819-.875 7.031a10.53 10.53 0 0 1-1.538 2.363c-.813.931-.794.894-.825 1.225-.05.538.219.931.738 1.069.413.113.675 0 1.144-.488 2.481-2.538 3.85-6.331 3.556-9.875-.225-2.706-1.169-5.131-2.794-7.169-.587-.731-1.15-1.275-1.4-1.344-.281-.075-.294-.075-.587.025z"/><path d="M23.406 9.531c-.306.106-.5.325-.6.656-.113.375 0 .656.488 1.231.506.594.769.994 1.087 1.662a6.971 6.971 0 0 1 .631 3.631c-.169 1.613-.725 2.825-1.906 4.188-.319.356-.444.694-.375.975.119.506.425.75.956.75.45 0 .644-.113 1.119-.656 2.406-2.731 2.906-6.688 1.256-9.969-.538-1.063-1.45-2.238-1.9-2.444-.306-.137-.425-.144-.756-.025z"/></symbol><symbol id="icon-voice1-1" viewBox="0 0 56 32"><path d="M25.625 2.056a3.897 3.897 0 0 0-.969.531c-.137.106-1.663 1.369-3.387 2.8l-3.137 2.606-4.537.038-.313.156c-.4.194-.775.569-.969.969l-.156.313v13.063l.156.313c.194.4.569.775.969.969l.313.156 4.537.038 3.137 2.606c3.675 3.056 3.544 2.944 3.981 3.175.3.156.413.181.881.181s.575-.025.9-.188c.456-.231.863-.712 1-1.175.087-.294.094-1.725.081-12.731L28.093 3.47l-.181-.362c-.344-.681-.925-1.05-1.694-1.081-.238-.013-.506 0-.594.031zm-1.512 17.819-.019 3.881-2.262-1.881L19.57 20h-3.444v-8h3.444l2.262-1.875 2.262-1.881.019 3.881c.006 2.131.006 5.619 0 7.75zM38.312 2.106c-.606.212-1.006.612-1.25 1.263-.263.681-.175 1.019.781 3.006.775 1.612 1.1 2.412 1.425 3.5.956 3.156 1.112 7.119.419 10.563-.356 1.775-.781 2.975-1.844 5.188-.394.806-.756 1.637-.813 1.837-.344 1.188.494 2.413 1.712 2.519 1.087.1 1.8-.481 2.575-2.094 1.856-3.844 2.669-7.1 2.781-11.137.112-3.838-.525-7.375-1.944-10.781-.881-2.112-1.519-3.225-2.069-3.606a2.002 2.002 0 0 0-1.775-.256zm-6.856 4.006c-.956.344-1.525 1.431-1.25 2.394.056.188.3.756.544 1.262 1.038 2.169 1.45 4.263 1.356 6.856-.087 2.262-.425 3.613-1.419 5.744-.238.5-.462 1.044-.5 1.212-.113.425-.05.85.181 1.325.606 1.225 2.219 1.469 3.181.481.819-.844 1.931-3.806 2.319-6.188.631-3.869.075-7.95-1.55-11.356-.631-1.325-1.15-1.775-2.087-1.825-.325-.019-.538.006-.775.094z"/></symbol><symbol id="icon-icons8-voice-48" viewBox="0 0 32 32"><path d="M12.533 8.133C10.8 9.6 8.4 11 7.2 11.266l-2.2.467V21l2 .2c1.133.133 3.533 1.4 5.467 2.867 4 3 5.867 3.267 6.467 1.067.667-2.467.467-17.133-.267-18.533C17.6 4.734 16 5.068 12.534 8.134zM25.867 7.733c-.2.2.267 1.8 1 3.667 1.2 2.8 1.267 3.733.667 6.4-.333 1.8-.867 3.733-1.2 4.333-.333.867-.2 1.2.533 1.2 1.6 0 3.4-5.467 2.933-9-.667-4.6-2.667-7.933-3.933-6.6zM22.533 11.067c-.267.2-.133 1.267.267 2.333.467 1.333.467 2.6-.067 4-.4 1.133-.533 2.333-.333 2.733.667 1 2.067-.667 2.533-3 .667-3.467-.933-7.533-2.4-6.067z"/></symbol></defs></svg>