<svg aria-hidden="true" style="position: absolute; width: 100%; height: 100%;" version="1.1" xmlns="http://www.w3.org/2000/svg" xmlns:xlink="http://www.w3.org/1999/xlink">
<defs>
<symbol id="icon-brand-awareness" viewBox="0 0 32 32">
<path d="M24.563 24.563q-1.313-1-4.313-3.25-0.25 0.313-0.75 1.031t-0.813 1.094q0.75 0.563 2.313 1.75t1.938 1.5q0.25-0.375 0.781-1.094t0.844-1.031zM24.563 7.438q-0.313-0.313-0.844-1.031t-0.781-1.094l-4.25 3.188q0.313 0.375 0.813 1.125t0.75 1.063q3-2.25 4.313-3.25zM26.688 17.313v-2.625h-5.375v2.625h5.375zM4 20h5.313l6.688 6.688v-21.375l-6.688 6.688h-5.313v8z"></path>
</symbol>
<symbol id="icon-bullhorn" viewBox="0 0 32 32">
<path d="M32 13.414c0-6.279-1.837-11.373-4.109-11.413 0.009-0 0.018-0.001 0.027-0.001h-2.592c0 0-6.088 4.573-14.851 6.367-0.268 1.415-0.438 3.102-0.438 5.047s0.171 3.631 0.438 5.047c8.763 1.794 14.851 6.367 14.851 6.367h2.592c-0.009 0-0.018-0.001-0.027-0.001 2.272-0.040 4.109-5.134 4.109-11.413zM27.026 23.102c-0.293 0-0.61-0.304-0.773-0.486-0.395-0.439-0.775-1.124-1.1-1.979-0.727-1.913-1.127-4.478-1.127-7.223s0.4-5.309 1.127-7.223c0.325-0.855 0.705-1.54 1.1-1.979 0.163-0.182 0.48-0.486 0.773-0.486s0.61 0.304 0.773 0.486c0.395 0.439 0.775 1.124 1.1 1.979 0.727 1.913 1.127 4.479 1.127 7.223s-0.4 5.309-1.127 7.223c-0.325 0.855-0.705 1.54-1.1 1.979-0.163 0.181-0.48 0.486-0.773 0.486zM7.869 13.414c0-1.623 0.119-3.201 0.345-4.659-1.48 0.205-2.779 0.323-4.386 0.323-2.096 0-2.096 0-2.096 0l-1.733 2.959v2.755l1.733 2.959c0 0 0 0 2.096 0 1.606 0 2.905 0.118 4.386 0.323-0.226-1.458-0.345-3.036-0.345-4.659zM11.505 20.068l-4-0.766 2.558 10.048c0.132 0.52 0.648 0.782 1.146 0.583l3.705-1.483c0.498-0.199 0.698-0.749 0.444-1.221l-3.853-7.161zM27.026 17.148c-0.113 0-0.235-0.117-0.298-0.187-0.152-0.169-0.299-0.433-0.424-0.763-0.28-0.738-0.434-1.726-0.434-2.784s0.154-2.046 0.434-2.784c0.125-0.33 0.272-0.593 0.424-0.763 0.063-0.070 0.185-0.187 0.298-0.187s0.235 0.117 0.298 0.187c0.152 0.169 0.299 0.433 0.424 0.763 0.28 0.737 0.434 1.726 0.434 2.784s-0.154 2.046-0.434 2.784c-0.125 0.33-0.272 0.593-0.424 0.763-0.063 0.070-0.185 0.187-0.298 0.187z"></path>
</symbol>
<symbol id="icon-voice2-1" viewBox="0 0 32 32">
<path d="M17.637 3.094c-0.113 0.050-2.4 1.625-5.075 3.5l-4.862 3.406h-1.969c-1.081 0-2.119 0.025-2.3 0.063-1.144 0.213-2.15 1.219-2.369 2.369-0.081 0.444-0.081 6.687 0 7.138 0.212 1.144 1.219 2.15 2.369 2.369 0.188 0.031 1.219 0.063 2.3 0.063h1.969l4.869 3.413c2.681 1.875 4.962 3.456 5.069 3.506 0.256 0.131 0.681 0.075 0.95-0.125 0.425-0.331 0.413-0.194 0.413-4.244v-3.644l0.425-0.119c1.3-0.375 2.469-1.369 3.069-2.619 0.325-0.675 0.438-1.125 0.488-1.919 0.075-1.3-0.35-2.519-1.225-3.563l-0.188-0.219-0.719 0.713-0.719 0.719 0.188 0.206c0.394 0.45 0.681 1.25 0.681 1.894 0 1.044-0.65 2.131-1.556 2.619-0.2 0.106-0.387 0.194-0.406 0.194s-0.038-3.369-0.038-7.488v-7.487l-0.137-0.275c-0.106-0.206-0.219-0.319-0.425-0.425-0.319-0.156-0.506-0.169-0.8-0.044zM16.988 21.031l-0.019 5.031-3.981-2.794-3.988-2.788v-8.963l3.988-2.787 3.981-2.794 0.019 5.031c0.006 2.769 0.006 7.294 0 10.063zM7 16v4.006l-1.681-0.019c-1.587-0.019-1.694-0.025-1.856-0.15-0.094-0.069-0.231-0.206-0.3-0.3-0.125-0.169-0.131-0.25-0.15-3.369-0.013-1.762 0-3.287 0.019-3.4 0.044-0.25 0.306-0.569 0.563-0.681 0.138-0.063 0.6-0.081 1.8-0.088h1.606v4zM26.169 6.588c-0.481 0.175-0.7 0.506-0.656 1.019 0.031 0.356 0 0.306 0.825 1.25 1.144 1.306 2.038 3.125 2.413 4.894 0.5 2.381 0.194 4.819-0.875 7.031-0.431 0.894-0.956 1.7-1.538 2.363-0.813 0.931-0.794 0.894-0.825 1.225-0.050 0.538 0.219 0.931 0.738 1.069 0.413 0.113 0.675 0 1.144-0.488 2.481-2.538 3.85-6.331 3.556-9.875-0.225-2.706-1.169-5.131-2.794-7.169-0.587-0.731-1.15-1.275-1.4-1.344-0.281-0.075-0.294-0.075-0.587 0.025z"></path>
<path d="M23.406 9.531c-0.306 0.106-0.5 0.325-0.6 0.656-0.113 0.375 0 0.656 0.488 1.231 0.506 0.594 0.769 0.994 1.087 1.662 0.531 1.125 0.756 2.419 0.631 3.631-0.169 1.613-0.725 2.825-1.906 4.188-0.319 0.356-0.444 0.694-0.375 0.975 0.119 0.506 0.425 0.75 0.956 0.75 0.45 0 0.644-0.113 1.119-0.656 2.406-2.731 2.906-6.688 1.256-9.969-0.538-1.063-1.45-2.238-1.9-2.444-0.306-0.137-0.425-0.144-0.756-0.025z"></path>
</symbol>
<symbol id="icon-voice1-1" viewBox="0 0 56 32">
<path d="M25.625 2.056c-0.269 0.087-0.712 0.331-0.969 0.531-0.137 0.106-1.663 1.369-3.387 2.8l-3.137 2.606-4.537 0.038-0.313 0.156c-0.4 0.194-0.775 0.569-0.969 0.969l-0.156 0.313v13.063l0.156 0.313c0.194 0.4 0.569 0.775 0.969 0.969l0.313 0.156 4.537 0.038 3.137 2.606c3.675 3.056 3.544 2.944 3.981 3.175 0.3 0.156 0.413 0.181 0.881 0.181s0.575-0.025 0.9-0.188c0.456-0.231 0.863-0.712 1-1.175 0.087-0.294 0.094-1.725 0.081-12.731l-0.019-12.406-0.181-0.362c-0.344-0.681-0.925-1.050-1.694-1.081-0.238-0.013-0.506 0-0.594 0.031zM24.113 19.875l-0.019 3.881-2.262-1.881-2.262-1.875h-3.444v-8h3.444l2.262-1.875 2.262-1.881 0.019 3.881c0.006 2.131 0.006 5.619 0 7.75zM38.312 2.106c-0.606 0.212-1.006 0.612-1.25 1.263-0.263 0.681-0.175 1.019 0.781 3.006 0.775 1.612 1.1 2.412 1.425 3.5 0.956 3.156 1.112 7.119 0.419 10.563-0.356 1.775-0.781 2.975-1.844 5.188-0.394 0.806-0.756 1.637-0.813 1.837-0.344 1.188 0.494 2.413 1.712 2.519 1.087 0.1 1.8-0.481 2.575-2.094 1.856-3.844 2.669-7.1 2.781-11.137 0.112-3.838-0.525-7.375-1.944-10.781-0.881-2.112-1.519-3.225-2.069-3.606-0.519-0.363-1.2-0.456-1.775-0.256zM31.456 6.112c-0.956 0.344-1.525 1.431-1.25 2.394 0.056 0.188 0.3 0.756 0.544 1.262 1.038 2.169 1.45 4.263 1.356 6.856-0.087 2.262-0.425 3.613-1.419 5.744-0.238 0.5-0.462 1.044-0.5 1.212-0.113 0.425-0.050 0.85 0.181 1.325 0.606 1.225 2.219 1.469 3.181 0.481 0.819-0.844 1.931-3.806 2.319-6.188 0.631-3.869 0.075-7.95-1.55-11.356-0.631-1.325-1.15-1.775-2.087-1.825-0.325-0.019-0.538 0.006-0.775 0.094z"></path>
</symbol>
<symbol id="icon-icons8-voice-48" viewBox="0 0 32 32">
<path d="M12.533 8.133c-1.733 1.467-4.133 2.867-5.333 3.133l-2.2 0.467v9.267l2 0.2c1.133 0.133 3.533 1.4 5.467 2.867 4 3 5.867 3.267 6.467 1.067 0.667-2.467 0.467-17.133-0.267-18.533-1.067-1.867-2.667-1.533-6.133 1.533z"></path>
<path d="M25.867 7.733c-0.2 0.2 0.267 1.8 1 3.667 1.2 2.8 1.267 3.733 0.667 6.4-0.333 1.8-0.867 3.733-1.2 4.333-0.333 0.867-0.2 1.2 0.533 1.2 1.6 0 3.4-5.467 2.933-9-0.667-4.6-2.667-7.933-3.933-6.6z"></path>
<path d="M22.533 11.067c-0.267 0.2-0.133 1.267 0.267 2.333 0.467 1.333 0.467 2.6-0.067 4-0.4 1.133-0.533 2.333-0.333 2.733 0.667 1 2.067-0.667 2.533-3 0.667-3.467-0.933-7.533-2.4-6.067z"></path>
</symbol>
</defs>
</svg>
